<?xml version="1.0" standalone="no"?>
<!DOCTYPE svg PUBLIC "-//W3C//DTD SVG 20010904//EN"
 "http://www.w3.org/TR/2001/REC-SVG-20010904/DTD/svg10.dtd">
<svg version="1.0" xmlns="http://www.w3.org/2000/svg"
 width="512.000000pt" height="512.000000pt" viewBox="0 0 512.000000 512.000000"
 preserveAspectRatio="xMidYMid meet">
<metadata>
Created by potrace 1.14, written by Peter Selinger 2001-2017
</metadata>
<g transform="translate(0.000000,512.000000) scale(0.100000,-0.100000)"
fill="#000000" stroke="none">
<path d="M2728 5106 c-21 -7 -49 -21 -64 -31 -14 -9 -28 -14 -31 -11 -9 9 -77
-24 -107 -52 -46 -44 -68 -106 -72 -203 -4 -121 24 -208 86 -266 l30 -28 -13
-70 c-14 -69 -15 -71 -114 -172 -111 -111 -83 -64 -345 -586 -92 -184 -102
-230 -67 -324 26 -68 62 -109 129 -148 l52 -30 -7 -285 c-3 -157 -6 -298 -5
-314 0 -24 -7 -72 -25 -166 -3 -13 -7 -42 -11 -64 -3 -22 -16 -96 -30 -165
-13 -70 -24 -136 -24 -148 0 -13 -18 -37 -47 -62 l-47 -40 -28 24 c-15 13 -58
39 -95 57 -60 29 -77 33 -148 33 -70 0 -89 -4 -145 -32 -70 -34 -165 -118
-223 -196 -20 -27 -37 -53 -39 -59 -2 -6 -30 -2 -73 11 -199 60 -350 13 -446
-137 -27 -43 -64 -146 -72 -199 -4 -30 -9 -34 -49 -39 -42 -6 -122 -31 -174
-54 -90 -42 -161 -142 -165 -238 -3 -50 9 -150 20 -167 3 -5 11 -25 17 -42
l12 -33 -199 0 c-122 0 -200 -4 -204 -10 -3 -6 -3 -19 0 -30 6 -20 18 -20 700
-22 l694 -3 -86 -105 c-48 -58 -121 -140 -162 -183 -42 -42 -80 -89 -85 -102
-11 -28 -19 -18 104 -125 41 -36 77 -67 80 -70 3 -3 39 -34 80 -70 41 -36 77
-67 80 -70 69 -70 122 -87 154 -51 19 21 22 40 12 96 -4 22 -13 83 -21 135 -8
52 -18 109 -20 126 -6 34 -11 28 135 164 25 23 95 91 157 151 l112 109 525 0
524 0 7 -42 c9 -53 12 -70 25 -133 5 -27 12 -63 15 -80 2 -16 14 -79 25 -139
11 -60 22 -138 25 -175 2 -36 7 -100 10 -141 3 -41 10 -79 16 -85 6 -6 115
-11 283 -12 262 -3 273 -2 294 18 29 27 28 70 -2 100 -13 13 -76 62 -140 109
-127 94 -121 85 -141 233 -4 27 -8 57 -10 67 -2 10 -7 51 -10 92 -4 40 -10 93
-14 118 -4 25 -6 51 -3 58 3 9 203 12 867 12 830 0 865 1 874 18 20 37 -4 42
-202 42 l-189 0 6 22 c44 155 49 227 20 308 -35 98 -119 171 -252 220 -42 15
-81 28 -87 28 -5 1 -38 4 -72 8 l-61 6 -16 65 c-21 82 -45 129 -88 170 -33 32
-110 72 -138 73 -12 0 -15 17 -14 92 l1 93 49 29 c132 79 248 166 309 232 104
113 143 167 189 265 52 109 73 205 71 319 -3 118 -9 154 -42 255 -52 161 -143
305 -259 414 -224 209 -487 204 -710 -16 -131 -129 -230 -312 -270 -503 -30
-144 -18 -277 38 -420 71 -180 292 -414 512 -539 l52 -30 1 -95 1 -94 -57 -7
c-31 -4 -88 -19 -128 -35 -39 -15 -75 -24 -80 -20 -9 9 -70 29 -110 36 -95 18
-187 3 -265 -45 l-46 -29 -11 26 c-5 15 -28 92 -51 172 -22 80 -45 161 -50
180 -6 19 -32 121 -59 227 -50 194 -54 237 -36 358 20 137 28 764 12 930 -5
44 -10 94 -11 110 -18 174 -82 411 -137 504 l-20 33 22 46 c25 51 31 40 -49
97 l-34 24 72 -4 c130 -8 181 34 204 167 7 40 12 117 10 171 -2 66 2 106 11
123 38 74 -32 172 -173 240 -85 42 -182 54 -244 30z"/>
</g>
</svg>
